<?xml version="1.0" encoding="utf-8"?>
<!-- Generator: Adobe Illustrator 16.0.0, SVG Export Plug-In . SVG Version: 6.00 Build 0)  -->
<!DOCTYPE svg PUBLIC "-//W3C//DTD SVG 1.1//EN" "http://www.w3.org/Graphics/SVG/1.1/DTD/svg11.dtd">
<svg version="1.1" id="All_glyphs" xmlns="http://www.w3.org/2000/svg" xmlns:xlink="http://www.w3.org/1999/xlink" x="0px" y="0px"
	 width="47px" height="52px" viewBox="0 0 47 52" enable-background="new 0 0 47 52" xml:space="preserve">
<g>
	<path fill="#CFCECE" d="M45.245,41.757L31.456,26l13.789-15.758c2.342-2.344,2.342-6.143,0-8.486
		c-2.346-2.343-6.145-2.342-8.486,0.001L23.5,16.909L10.244,1.757C7.901-0.585,4.102-0.586,1.757,1.756
		c-2.343,2.344-2.343,6.143,0,8.486L15.545,26L1.757,41.757c-2.343,2.343-2.343,6.142-0.001,8.485c2.344,2.344,6.143,2.344,8.487,0
		L23.5,35.09l13.256,15.152c2.346,2.344,6.145,2.344,8.488,0C47.586,47.898,47.586,44.1,45.245,41.757z"/>
</g>
</svg>
