<?xml version="1.0" encoding="utf-8"?>
<!-- Generator: Adobe Illustrator 16.0.0, SVG Export Plug-In . SVG Version: 6.00 Build 0)  -->
<!DOCTYPE svg PUBLIC "-//W3C//DTD SVG 1.1//EN" "http://www.w3.org/Graphics/SVG/1.1/DTD/svg11.dtd">
<svg version="1.1" id="Layer_1" xmlns="http://www.w3.org/2000/svg" xmlns:xlink="http://www.w3.org/1999/xlink" x="0px" y="0px"
	 width="100px" height="100px" viewBox="0 0 100 100" enable-background="new 0 0 100 100" xml:space="preserve">
<g>
	<path fill-rule="evenodd" clip-rule="evenodd" d="M60.467,83.289c-14.191,4.659-26.833,0.718-36.469-10.486
		c-8.532-9.918-10.501-22.24-5.464-35.132c2.848,0.599,4.883,1.857,8.122,2.539c-1.172-8.541-2.229-16.23-3.441-25.052
		C15.837,20.784,9.563,25.568,2.812,30.716c2.69,1.515,5.291,2.268,7.295,3.396C4.951,58.718,9.688,75.471,26.089,86.465
		c13.9,9.319,32.644,9.771,45.063,1.008C68.807,82.918,66.122,81.433,60.467,83.289z" style="fill: #FFFFFF;"/>
	<path fill-rule="evenodd" clip-rule="evenodd" d="M92.77,56.855c2.089-16.754-3.589-30.54-17.15-40.475
		C62.326,6.644,47.762,5.88,32.446,11.79c2.45,6.633,6.665,6.568,12.185,5.574c25.044-4.503,46.188,20.081,37.995,43.804
		c-2.442-0.76-5.052-1.813-8.142-2.622c1.108,8.563,2.112,16.329,3.277,25.356c7.255-5.427,13.551-10.137,21.789-16.3
		c-3.979-1.62-8.259-3.31-8.259-3.31S92.454,59.392,92.77,56.855z" style="fill: #FFFFFF;"/>
</g>
</svg>
