<?xml version="1.0" encoding="utf-8"?>
<!-- Generator: Adobe Illustrator 16.0.0, SVG Export Plug-In . SVG Version: 6.00 Build 0)  -->
<!DOCTYPE svg PUBLIC "-//W3C//DTD SVG 1.1//EN" "http://www.w3.org/Graphics/SVG/1.1/DTD/svg11.dtd">
<svg version="1.1" id="Layer_1" xmlns="http://www.w3.org/2000/svg" xmlns:xlink="http://www.w3.org/1999/xlink" x="0px" y="0px"
	 width="26.342px" height="24.646px" viewBox="0 0 26.342 24.646" enable-background="new 0 0 26.342 24.646" xml:space="preserve">
<line fill="none" stroke="#FFFFFF" stroke-width="1.7" stroke-linecap="round" stroke-linejoin="round" x1="13.17" y1="7.596" x2="13.17" y2="15.581"/>
<path fill="none" stroke="#FFFFFF" stroke-width="1.7" stroke-linecap="round" stroke-linejoin="round" d="M13.54,18.931
	c0.109,0.1,0.179,0.245,0.179,0.405c0,0.303-0.246,0.549-0.548,0.549c-0.304,0-0.55-0.246-0.55-0.549
	c0-0.302,0.246-0.549,0.55-0.549c0.089,0,0.175,0.023,0.25,0.062"/>
<path fill="none" stroke="#FFFFFF" stroke-width="1.7" stroke-linecap="round" stroke-linejoin="round" d="M19.428,23.778
	L2.845,23.795c-1.133,0-1.706-1.024-1.706-1.024s-0.8-1.377,0.26-3.213L11.288,2.12c0.786-1.377,1.857-1.268,1.857-1.268
	s1.176-0.124,1.95,1.299l9.676,17.472c1.289,2.301,0.456,3.148,0.456,3.148s-0.669,0.969-2.067,0.993l-0.32,0.008"/>
</svg>
