<?xml version="1.0" encoding="utf-8"?>
<!-- Generator: Adobe Illustrator 16.0.0, SVG Export Plug-In . SVG Version: 6.00 Build 0)  -->
<!DOCTYPE svg PUBLIC "-//W3C//DTD SVG 1.1//EN" "http://www.w3.org/Graphics/SVG/1.1/DTD/svg11.dtd">
<svg version="1.1" id="All_glyphs" xmlns="http://www.w3.org/2000/svg" xmlns:xlink="http://www.w3.org/1999/xlink" x="0px" y="0px"
	 width="11px" height="11px" viewBox="0 0 92 92" enable-background="new 0 0 92 92" xml:space="preserve">
<path fill="#999999" d="M45.385,0.004C19.982,0.344-0.334,21.215,0.004,46.62c0.34,25.394,21.209,45.715,46.611,45.377
	c25.398-0.343,45.718-21.213,45.38-46.615C91.656,19.987,70.785-0.334,45.385,0.004z M45.25,74l-0.254-0.004
	c-3.912-0.117-6.67-2.998-6.559-6.854c0.109-3.787,2.934-6.537,6.717-6.537l0.227,0.004c4.021,0.119,6.748,2.973,6.635,6.938
	C51.904,71.346,49.123,74,45.25,74z M61.705,41.341c-0.92,1.307-2.943,2.93-5.492,4.916l-2.807,1.938
	c-1.541,1.197-2.471,2.324-2.82,3.435c-0.275,0.873-0.41,1.104-0.434,2.879l-0.004,0.451H39.429l0.031-0.905
	c0.131-3.729,0.223-5.923,1.768-7.734c2.424-2.846,7.771-6.289,7.999-6.435c0.767-0.577,1.412-1.234,1.894-1.936
	c1.125-1.551,1.623-2.772,1.623-3.972c0-1.665-0.494-3.205-1.472-4.576c-0.938-1.323-2.724-1.993-5.304-1.993
	c-2.559,0-4.311,0.812-5.359,2.478c-1.078,1.713-1.623,3.512-1.623,5.35v0.457H27.935l0.02-0.477
	c0.285-6.769,2.701-11.643,7.178-14.487C37.947,18.918,41.447,18,45.531,18c5.346,0,9.859,1.299,13.412,3.861
	c3.6,2.596,5.426,6.484,5.426,11.556C64.369,36.254,63.473,38.919,61.705,41.341z"/>
</svg>
