<?xml version="1.0" encoding="utf-8"?>
<!-- Generator: Adobe Illustrator 16.0.0, SVG Export Plug-In . SVG Version: 6.00 Build 0)  -->
<!DOCTYPE svg PUBLIC "-//W3C//DTD SVG 1.1//EN" "http://www.w3.org/Graphics/SVG/1.1/DTD/svg11.dtd">
<svg version="1.1" id="All_glyphs" xmlns="http://www.w3.org/2000/svg" xmlns:xlink="http://www.w3.org/1999/xlink" x="0px" y="0px"
	 width="11px" height="11px" viewBox="0 0 94 90" enable-background="new 0 0 94 90" xml:space="preserve">
<g>
	<path fill="#999999" d="M73.602,67.24c-12.326-4.493-16.266-8.282-16.266-16.395c0-4.871,3.764-3.281,5.416-12.202
		c0.686-3.7,4.01-0.06,4.646-8.507c0-3.367-1.814-4.203-1.814-4.203s0.922-4.982,1.283-8.816C67.314,12.342,64.107,0,47,0
		C29.893,0,26.684,12.342,27.133,17.119c0.361,3.834,1.283,8.816,1.283,8.816s-1.814,0.836-1.814,4.203
		c0.635,8.447,3.959,4.807,4.645,8.507c1.654,8.919,5.416,7.33,5.416,12.201c0,8.112-3.938,11.901-16.264,16.396
		C8.033,71.746,0,76.339,0,79.473C0,82.604,0,90,0,90h47h47c0,0,0-7.396,0-10.527C94,76.339,85.967,71.746,73.602,67.24z"/>
</g>
</svg>
